# xmcd
#
# Track frame offsets: 
#        150
#        18261
#        37892
#        58765
#        74613
#        89546
#        112692
#        129133
#        143958
#        162164
#        175957
#        196876
#
# Disc length: 2810 seconds
#
# Revision: 0
# Processed by: cddbd v1.5.2PL0 Copyright (c) Steve Scherf et al.
# Submitted via: ExactAudioCopy v0.99pb4
#
DISCID=9b0af80c
DTITLE=Stacie Collins - Sometimes Ya Gotta...
DYEAR=2010
DGENRE=Roots Music
TTITLE0=Hey Mister
TTITLE1=I Won't Do Ya Like That
TTITLE2=Little Things
TTITLE3=The Very Last Time
TTITLE4=A Good Man
TTITLE5=It Hurts To Breathe
TTITLE6=Tied To You
TTITLE7=Give It Up
TTITLE8=Don't Doubt Me Now
TTITLE9=Carry Me Away
TTITLE10=Cool
TTITLE11=Lend The Devil A Hand
EXTD=
EXTT0=
EXTT1=
EXTT2=
EXTT3=
EXTT4=
EXTT5=
EXTT6=
EXTT7=
EXTT8=
EXTT9=
EXTT10=
EXTT11=
PLAYORDER=
